<?xml version="1.0" encoding="UTF-8" standalone="no" ?>
<!DOCTYPE svg PUBLIC "-//W3C//DTD SVG 1.1//EN" "http://www.w3.org/Graphics/SVG/1.1/DTD/svg11.dtd">
<svg xmlns="http://www.w3.org/2000/svg" xmlns:xlink="http://www.w3.org/1999/xlink" version="1.1" width="300" height="300" viewBox="0 0 300 300" xml:space="preserve">
<desc>Created with Fabric.js 5.3.0</desc>
<defs>
</defs>
<g transform="matrix(1.0478413245 0 0 1.0478413254 149.776996032 149.7769959133)" id="TL2AZ7koPbR9LL3L6udnJ"  >
<path style="stroke: rgb(102,201,87); stroke-width: 0; stroke-dasharray: none; stroke-linecap: butt; stroke-dashoffset: 0; stroke-linejoin: miter; stroke-miterlimit: 4; fill: rgb(232,232,232); fill-rule: nonzero; opacity: 0.7;"  transform=" translate(0, 0)" d="M -143.15145 -128.09881 C -143.15145 -136.41215 -136.41216 -143.15143999999998 -128.09882000000002 -143.15143999999998 L 128.09881 -143.15143999999998 L 128.09881 -143.15143999999998 C 136.41215 -143.15143999999998 143.15143999999998 -136.41214999999997 143.15143999999998 -128.09881 L 143.15143999999998 128.09882000000002 L 143.15143999999998 128.09882000000002 C 143.15143999999998 136.41216000000003 136.41214999999997 143.15145 128.09881 143.15145 L -128.09882000000002 143.15145 L -128.09882000000002 143.15145 C -136.41216000000003 143.15145 -143.15145 136.41216 -143.15145 128.09882000000002 z" stroke-linecap="round" />
</g>
<g transform="matrix(0.3087529719 0 0 0.3087529719 150 150)" id="dcP1lViCC1g-N0rj24l5g"  >
<path style="stroke: none; stroke-width: 1; stroke-dasharray: none; stroke-linecap: butt; stroke-dashoffset: 0; stroke-linejoin: miter; stroke-miterlimit: 4; fill: rgb(0,0,0); fill-rule: nonzero; opacity: 0.25;"  transform=" translate(-256, -256)" d="M 448 80 C 456.8 80 464 87.2 464 96 L 464 415.8 L 459 409.3 L 323 233.3 C 318.5 227.4 311.4 224 304 224 C 296.6 224 289.6 227.4 285 233.3 L 202 340.7 L 171.5 298 C 167 291.7 159.8 288 152 288 C 144.2 288 137 291.7 132.5 298.1 L 52.5 410.1 L 48 416.3 L 48 416 L 48 96 C 48 87.2 55.2 80 64 80 L 448 80 z M 64 32 C 28.7 32 0 60.7 0 96 L 0 416 C 0 451.3 28.7 480 64 480 L 448 480 C 483.3 480 512 451.3 512 416 L 512 96 C 512 60.7 483.3 32 448 32 L 64 32 z M 144 224 C 170.50966799187808 224 192 202.50966799187808 192 176 C 192 149.49033200812192 170.50966799187808 128 144 128 C 117.49033200812191 128 96 149.49033200812192 96 176 C 96 202.50966799187808 117.49033200812191 224 144 224 z" stroke-linecap="round" />
</g>
</svg>